<svg id="Layer_1" data-name="Layer 1" xmlns="http://www.w3.org/2000/svg" viewBox="0 0 709.167 209.548">
    <defs>
        <style>
            .cls-1, .cls-2 {
            fill: #f2f2f2;
            }

            .cls-1 {
            fill-rule: evenodd;
            }
        </style>
    </defs>
    <title>logo_szoveg_nelkul_d_rgb</title>
    <g>
        <path class="cls-1"
              d="M400.342,132.546q0,30.972-14.108,53.055l-15.951-12.23q8.633-15.968,8.607-40.825,0-28.068-12.116-46.837Q354.66,66.922,332.552,66.922q-24.98,0-38.094,17.231-13.115,17.252-13.115,48.394,0,25.681,8.534,40.882l-16.711,12.813q-13.262-20.746-13.276-53.694,0-40.137,18.779-62.892,18.74-22.773,53.745-22.736,31.881,0,49.895,24.026,18.031,23.968,18.032,61.6M666.1,70.263a11.433,11.433,0,0,1-11.5-11.5,11.412,11.412,0,0,1,3.331-8.24,11.12,11.12,0,0,1,8.17-3.4A11.552,11.552,0,0,1,677.7,58.763a11.012,11.012,0,0,1-3.366,8.134A11.3,11.3,0,0,1,666.1,70.263ZM132.305,58.375l-9.463,18.809Q105.61,64.392,89.079,64.411q-26.23,0-41.437,18.5-15.189,18.459-15.149,48.953,0,28.975,14.877,46.653,14.9,17.7,40.54,17.682,18.285,0,29.557-10.943v-1.2l22.821,15.456q-9.114,7.769-25.431,12.5A113.6,113.6,0,0,1,83.12,216.72q-34.523,0-54.559-23.444Q8.523,169.851,8.5,130.927q0-38.787,21.964-62.933Q52.433,43.869,89.74,43.888,115.911,43.888,132.305,58.375Zm-14.837,84.9v-.018H94.336v-17.9h45.953v17.917Zm100.054-11.611v82.209H194.7V131.667ZM166.649,90.758,140.958,46.731H164.48l25.1,44.028Zm55.99,0,25.1-44.028h23.522L245.684,90.758ZM356.867,211.448a11.433,11.433,0,0,1-11.5-11.5,11.406,11.406,0,0,1,3.331-8.24,11.118,11.118,0,0,1,8.17-3.4,11.551,11.551,0,0,1,11.605,11.641,11.008,11.008,0,0,1-3.365,8.135A11.3,11.3,0,0,1,356.867,211.448Zm-53.869,0a11.22,11.22,0,0,1-8.2-3.366,11.039,11.039,0,0,1-3.4-8.135A11.613,11.613,0,0,1,303,188.306a11.06,11.06,0,0,1,8.17,3.4,11.3,11.3,0,0,1,3.367,8.24A11.494,11.494,0,0,1,303,211.448Zm205.491,2.428L462.4,142.1c-5.1.149-13.163.06-24.183-.081v71.853H415.4V123.6c12.945.045,25.855.162,38.788.162,13.669,0,23.639-3.228,29.87-7.668,6.27-4.4,11.033-12.267,11.033-23.6,0-9.346-5-16.083-11.7-20.212-15.445-7.4-50.718-5.12-67.995-4.541V46.731c43.164-.775,105.8-7.425,103.641,46.227.413,19.566-13.876,39.733-33.35,44.155l48.933,76.763Zm110.336,0L571.7,136.963l-22.1,31.374v-30.93l61.9-90.677h25.43L586.97,119.165l57.052,94.71Z"
              transform="translate(-8.504 -7.171)"/>
        <path class="cls-1"
              d="M654.739,213.876V83.423a26.75,26.75,0,0,0,11.288,2.346,27.071,27.071,0,0,0,11.533-2.433V213.876"
              transform="translate(-8.504 -7.171)"/>
        <path class="cls-2"
              d="M666.149,7.171A51.618,51.618,0,0,1,717.67,58.693H715.4A49.352,49.352,0,0,0,666.149,9.437m0,8.848a40.484,40.484,0,0,1,40.409,40.408h-2.266A38.218,38.218,0,0,0,666.149,20.55Zm0,11.32a29.14,29.14,0,0,1,29.088,29.088h-2.266a26.876,26.876,0,0,0-26.822-26.822Z"
              transform="translate(-8.504 -7.171)"/>
    </g>
</svg>
